FFmpeg version SVN-r25716, Copyright (c) 2000-2010 the FFmpeg developers  built on Nov 10 2010 12:23:18 with gcc 4.1.2 20080704 (Red Hat 4.1.2-48)  configuration: --enable-libmp3lame --enable-shared --disable-mmx --arch=x86_64  libavutil     50.33. 0 / 50.33. 0  libavcore      0.12. 1 /  0.12. 1  libavcodec    52.94. 4 / 52.94. 4  libavformat   52.84. 0 / 52.84. 0  libavdevice   52. 2. 2 / 52. 2. 2  libavfilter    1.59. 0 /  1.59. 0  libswscale     0.12. 0 /  0.12. 0Input #0, avi, from '/RAID10/data/converted_video_files/47675.avi':  Duration: 00:00:06.20, start: 0.000000, bitrate: 188620 kb/s    Stream #0.0: Video: msvideo1, rgb555le, 1024x1024, 20 tbr, 20 tbn, 20 tbc[buffer @ 0x8f20510] w:1024 h:1024 pixfmt:rgb555le[ffsink @ 0x8f1f710] auto-inserting filter 'auto-inserted scaler 0' between the filter 'src' and the filter 'out'[scale @ 0x8f1e650] w:1024 h:1024 fmt:rgb555le -> w:1024 h:1024 fmt:yuv420p flags:0x4Output #0, flv, to '/RAID10/data/converted_video_files/47675.flv':  Metadata:    encoder         : Lavf52.84.0    Stream #0.0: Video: flv, yuv420p, 1024x1024, q=2-31, 600 kb/s, 1k tbn, 24 tbcStream mapping:  Stream #0.0 -> #0.0Press [q] to stop encodingframe=    7 fps=  0 q=9.7 size=    1031kB time=0.33 bitrate=25285.8kbits/s    frame=   12 fps= 10 q=24.4 size=    1046kB time=0.58 bitrate=14669.6kbits/s    frame=   18 fps= 10 q=31.0 size=    1076kB time=0.88 bitrate=10078.3kbits/s    frame=   24 fps= 10 q=31.0 size=    1082kB time=1.17 bitrate=7592.8kbits/s    frame=   35 fps= 12 q=31.0 size=    1119kB time=1.75 bitrate=5243.4kbits/s    frame=   46 fps= 14 q=31.0 size=    1175kB time=2.29 bitrate=4201.4kbits/s    frame=   55 fps= 14 q=31.0 size=    1209kB time=2.75 bitrate=3602.2kbits/s    frame=   62 fps= 14 q=31.0 size=    1241kB time=3.08 bitrate=3297.1kbits/s    frame=   70 fps= 14 q=31.0 size=    1247kB time=3.50 bitrate=2917.5kbits/s    frame=   79 fps= 14 q=31.0 size=    1279kB time=3.96 bitrate=2646.7kbits/s    frame=   85 fps= 14 q=24.8 size=    1310kB time=4.25 bitrate=2525.2kbits/s    frame=   94 fps= 14 q=31.0 size=    1316kB time=4.71 bitrate=2288.9kbits/s    frame=  105 fps= 15 q=31.0 size=    1349kB time=5.25 bitrate=2105.4kbits/s    frame=  115 fps= 15 q=31.0 size=    1382kB time=5.75 bitrate=1969.1kbits/s    frame=  124 fps= 15 q=31.0 size=    1414kB time=6.21 bitrate=1865.5kbits/s    frame=  124 fps= 15 q=31.0 Lsize=    1414kB time=6.21 bitrate=1865.5kbits/s    video:1412kB audio:0kB global headers:0kB muxing overhead 0.151766%